<svg width="20" height="22" viewBox="0 0 20 22" fill="none" xmlns="http://www.w3.org/2000/svg">
<path d="M13.7347 3.46564C13.1776 4.03362 12.5473 4.44871 11.8295 4.7164C12.0445 4.16265 12.3653 3.65286 12.7941 3.17826C13.3881 2.52081 14.0612 2.05773 14.8312 1.7777C14.5931 2.40291 14.2291 2.96161 13.7347 3.46564ZM7.20731 3.17859C7.63602 3.65279 7.95672 4.16238 8.17145 4.7162C7.4533 4.44816 6.82266 4.03276 6.26527 3.46454C5.77109 2.96075 5.4073 2.40253 5.1692 1.77811C5.93986 2.05841 6.61329 2.52153 7.20731 3.17859Z" fill="#0D5254" stroke="#0D5254" stroke-width="3"/>
<line x1="2.22217" y1="12.7271" x2="17.7777" y2="12.7271" stroke="#0D5254"/>
<line x1="2.22217" y1="10.5225" x2="17.7777" y2="10.5225" stroke="#0D5254"/>
<line x1="2.22217" y1="11.6248" x2="17.7777" y2="11.6248" stroke="#0D5254"/>
<line x1="4.44434" y1="16.0338" x2="15.5554" y2="16.0338" stroke="#0D5254"/>
<line x1="4.44434" y1="17.136" x2="15.5554" y2="17.136" stroke="#0D5254"/>
<line x1="4.44434" y1="14.9316" x2="15.5554" y2="14.9316" stroke="#0D5254"/>
<line x1="4.44434" y1="18.2383" x2="15.5554" y2="18.2383" stroke="#0D5254"/>
<line x1="4.44434" y1="19.3406" x2="15.5554" y2="19.3406" stroke="#0D5254"/>
</svg>
