<svg width="20" height="22" viewBox="0 0 20 22" fill="none" xmlns="http://www.w3.org/2000/svg">
<path d="M5.68183 19.9177L5.77704 20.2955H6.16667H13.8333H14.223L14.3182 19.9177L15.3341 15.8865H16.5797L15.4885 20.1927C15.4883 20.1932 15.4882 20.1938 15.488 20.1944C15.3846 20.5888 15.1837 20.899 14.8814 21.1417C14.585 21.3798 14.2429 21.5001 13.8333 21.5001H6.16667C5.75713 21.5001 5.41502 21.3798 5.11863 21.1417C4.81635 20.899 4.61542 20.5889 4.51198 20.1944C4.51183 20.1938 4.51168 20.1933 4.51153 20.1927L3.42029 15.8865H4.66593L5.68183 19.9177ZM5.05556 14.8865H4.41392H2.22222C1.74361 14.8865 1.34668 14.723 1.00436 14.3834C0.662178 14.044 0.499426 13.6526 0.500002 13.1826V13.182V9.87525C0.500002 9.6904 0.557514 9.55802 0.672138 9.44431C0.78691 9.33045 0.921531 9.27256 1.10994 9.273H1.11111H8.88889H9.38889V8.773V6.45827V6.03943L8.97654 5.96601C7.63349 5.72687 6.49642 5.12827 5.55139 4.16486C4.60971 3.20487 4.05632 2.06132 3.88486 0.718335L3.88361 0.708545L3.88198 0.698812C3.87341 0.647804 3.87726 0.61568 3.93547 0.557935C3.99385 0.500021 4.02901 0.494104 4.08511 0.503378L4.09543 0.505085L4.10582 0.506359C5.63378 0.693703 6.90842 1.3569 7.9491 2.50801C8.98562 3.65452 9.50069 4.99978 9.5 6.56827C9.5 6.56834 9.5 6.56842 9.5 6.56849L10.5 6.56871C10.5 6.56864 10.5 6.56856 10.5 6.56849C10.5 5.00071 11.0154 3.65529 12.0521 2.5079C13.0928 1.35609 14.367 0.69301 15.894 0.506382L15.9045 0.505101L15.9149 0.503378C15.971 0.494104 16.0061 0.500021 16.0645 0.557935C16.1227 0.615682 16.1266 0.647807 16.118 0.698812L16.1164 0.708561L16.1151 0.718367C15.9437 2.06214 15.3902 3.20602 14.4486 4.16596C13.5036 5.12932 12.3666 5.72753 11.0237 5.96596L10.6111 6.03922V6.45827V8.773V9.273H11.1111H18.8889C19.0788 9.273 19.2141 9.33149 19.329 9.44541C19.4435 9.55906 19.5004 9.6907 19.5 9.87407V9.87525V13.182C19.5 13.6532 19.3367 14.0451 18.9945 14.3845C18.6534 14.7229 18.2586 14.886 17.7834 14.8865C17.7817 14.8865 17.7801 14.8865 17.7784 14.8865H17.7778H17.2222H15.5861H14.9444H5.05556ZM1.72222 13.182V13.682H2.22222H17.7778H18.2778V13.182V10.9775V10.4775H17.7778H2.22222H1.72222V10.9775V13.182Z" stroke="#484C52"/>
</svg>
