<svg width="32" height="32" viewBox="0 0 32 32" fill="none" xmlns="http://www.w3.org/2000/svg">
<g clip-path="url(#clip0_190_1779)">
<path fill-rule="evenodd" clip-rule="evenodd" d="M32 16C32 20.2435 30.3143 24.3131 27.3137 27.3137C24.3131 30.3143 20.2435 32 16 32C11.7565 32 7.68687 30.3143 4.68629 27.3137C1.68571 24.3131 0 20.2435 0 16C0 11.7565 1.68571 7.68687 4.68629 4.68629C7.68687 1.68571 11.7565 0 16 0C20.2435 0 24.3131 1.68571 27.3137 4.68629C30.3143 7.68687 32 11.7565 32 16ZM16 7.42857C16.4547 7.42857 16.8907 7.60918 17.2122 7.93067C17.5337 8.25217 17.7143 8.6882 17.7143 9.14286V14.2857H22.8571C23.3118 14.2857 23.7478 14.4663 24.0693 14.7878C24.3908 15.1093 24.5714 15.5453 24.5714 16C24.5714 16.4547 24.3908 16.8907 24.0693 17.2122C23.7478 17.5337 23.3118 17.7143 22.8571 17.7143H17.7143V22.8571C17.7143 23.3118 17.5337 23.7478 17.2122 24.0693C16.8907 24.3908 16.4547 24.5714 16 24.5714C15.5453 24.5714 15.1093 24.3908 14.7878 24.0693C14.4663 23.7478 14.2857 23.3118 14.2857 22.8571V17.7143H9.14286C8.6882 17.7143 8.25217 17.5337 7.93067 17.2122C7.60918 16.8907 7.42857 16.4547 7.42857 16C7.42857 15.5453 7.60918 15.1093 7.93067 14.7878C8.25217 14.4663 8.6882 14.2857 9.14286 14.2857H14.2857V9.14286C14.2857 8.6882 14.4663 8.25217 14.7878 7.93067C15.1093 7.60918 15.5453 7.42857 16 7.42857Z" fill="black"/>
</g>
<defs>
<clipPath id="clip0_190_1779">
<rect width="32" height="32" fill="white"/>
</clipPath>
</defs>
</svg>
